<svg width="22" height="22" viewBox="0 0 22 22" fill="none" xmlns="http://www.w3.org/2000/svg">
<path fill-rule="evenodd" clip-rule="evenodd" d="M0.502441 11.5011C0.502441 6.2332 4.71244 1.48608 10.5224 1.48608C16.2024 1.48608 20.5024 6.14307 20.5024 11.4711C20.5024 17.6503 15.4624 21.4861 10.5024 21.4861C8.86244 21.4861 7.04244 21.0454 5.58244 20.1841C5.07244 19.8737 4.64244 19.6433 4.09244 19.8236L2.07244 20.4245C1.56244 20.5847 1.10244 20.1841 1.25244 19.6433L1.92244 17.4C2.03244 17.0895 2.01244 16.759 1.85244 16.4986C0.992441 14.9162 0.502441 13.1836 0.502441 11.5011ZM9.20244 11.5011C9.20244 12.2122 9.77244 12.783 10.4824 12.793C11.1924 12.793 11.7624 12.2122 11.7624 11.5111C11.7624 10.8001 11.1924 10.2292 10.4824 10.2292C9.78244 10.2192 9.20244 10.8001 9.20244 11.5011ZM13.8124 11.5111C13.8124 12.2122 14.3824 12.793 15.0924 12.793C15.8024 12.793 16.3724 12.2122 16.3724 11.5111C16.3724 10.8001 15.8024 10.2292 15.0924 10.2292C14.3824 10.2292 13.8124 10.8001 13.8124 11.5111ZM5.87244 12.793C5.17244 12.793 4.59244 12.2122 4.59244 11.5111C4.59244 10.8001 5.16244 10.2292 5.87244 10.2292C6.58244 10.2292 7.15244 10.8001 7.15244 11.5111C7.15244 12.2122 6.58244 12.783 5.87244 12.793Z" fill="#2DCC70"/>
</svg>
