<svg width="23" height="22" viewBox="0 0 23 22" fill="none" xmlns="http://www.w3.org/2000/svg">
<path fill-rule="evenodd" clip-rule="evenodd" d="M16.0538 1.04631C16.714 1.04631 17.3731 1.13942 17.9998 1.34971C21.8614 2.60518 23.2528 6.84238 22.0905 10.546C21.4314 12.4386 20.3538 14.1659 18.9424 15.5773C16.9222 17.5337 14.7052 19.2705 12.3188 20.7666L12.0572 20.9245L11.7852 20.7561C9.39041 19.2705 7.16091 17.5337 5.12182 15.5668C3.71988 14.1555 2.64122 12.4386 1.97164 10.546C0.789411 6.84238 2.18089 2.60518 6.08434 1.32774C6.38775 1.22312 6.70057 1.14989 7.01443 1.10908H7.13998C7.43397 1.06619 7.72587 1.04631 8.01881 1.04631H8.13389C8.79301 1.06619 9.43121 1.18127 10.0495 1.39156H10.1113C10.1531 1.41144 10.1845 1.43341 10.2054 1.45329C10.4366 1.52757 10.6553 1.61127 10.8645 1.72635L11.2621 1.90421C11.3582 1.95545 11.466 2.03373 11.5592 2.10139C11.6182 2.14426 11.6714 2.18286 11.712 2.20762C11.729 2.21769 11.7464 2.22782 11.7639 2.23803C11.8536 2.2904 11.947 2.34494 12.0258 2.40535C13.1882 1.51711 14.5995 1.03585 16.0538 1.04631ZM18.8367 8.57911C19.2657 8.5676 19.6319 8.22339 19.6633 7.78293V7.65843C19.6946 6.19268 18.8064 4.86502 17.4557 4.35237C17.0268 4.20485 16.556 4.43607 16.399 4.87548C16.2526 5.3149 16.4827 5.79616 16.9222 5.95205C17.5928 6.20314 18.0416 6.86331 18.0416 7.59461V7.62705C18.0217 7.86663 18.0939 8.09785 18.2404 8.27571C18.3869 8.45356 18.6066 8.55714 18.8367 8.57911Z" fill="#2DCC70"/>
</svg>
