<svg width="17" height="18" viewBox="0 0 17 18" fill="none" xmlns="http://www.w3.org/2000/svg">
<path d="M5.81318 16.4486V13.7695C5.81318 13.0856 6.37165 12.5312 7.06055 12.5312H9.57881C9.90963 12.5312 10.2269 12.6617 10.4608 12.8939C10.6948 13.1261 10.8262 13.4411 10.8262 13.7695V16.4486C10.8241 16.7329 10.9364 17.0063 11.1382 17.2081C11.34 17.4099 11.6145 17.5234 11.9009 17.5234H13.619C14.4214 17.5254 15.1917 17.2104 15.7598 16.6479C16.3279 16.0854 16.6472 15.3215 16.6472 14.525V6.89269C16.6472 6.24923 16.3599 5.63888 15.8627 5.22605L10.0181 0.592175C9.00146 -0.220302 7.54478 -0.194069 6.55846 0.654479L0.847265 5.22605C0.326584 5.62671 0.0153788 6.23887 0 6.89269V14.5172C0 16.1774 1.35577 17.5234 3.02819 17.5234H4.70703C5.30189 17.5234 5.78534 17.0469 5.78965 16.4564L5.81318 16.4486Z" fill="#2DCC70"/>
</svg>
