<svg width="793" height="349" viewBox="0 0 793 349" fill="none" xmlns="http://www.w3.org/2000/svg">
<path d="M215.477 32.6028C210.941 38.9451 207.119 44.2793 202.457 50.7895V0.555542C213.839 11.728 224.802 22.4384 236.94 34.3249C230.64 34.0309 225.852 33.7789 219.509 33.4848C222.239 36.467 223.92 38.5671 225.852 40.4151C245.802 59.3159 270.079 70.2363 296.204 77.2506C341.188 89.3891 387.054 90.4391 433.172 87.415C472.191 84.8529 511.169 84.6849 549.852 91.2791C591.938 98.4194 631.504 112.112 665.651 138.657C688.71 156.55 706.897 178.349 717.607 205.86C717.901 206.658 718.405 207.372 719.413 209.304C721.513 206.154 723.235 203.718 724.789 201.156C733.358 187.127 741.842 173.056 750.494 159.07C751.292 157.768 753.014 156.13 754.317 156.13C766.875 155.92 779.392 156.004 793 156.004C790.102 160.54 787.75 164.278 785.272 168.016C770.151 190.907 754.947 213.798 739.994 236.815C738.524 239.125 737.978 242.401 737.936 245.215C737.852 263.738 738.02 282.303 738.146 300.825C738.146 302.716 738.146 304.606 738.146 306.916C736.256 307.126 734.744 307.378 733.232 307.378C723.781 307.378 714.331 307.21 704.881 307.462C700.806 307.588 699.462 306.286 699.504 302.128C699.714 283.059 699.714 263.99 699.504 244.921C699.504 241.813 698.58 238.243 696.9 235.681C684.762 217.116 673.505 197.963 658.049 181.709C632.764 155.164 602.481 137.481 566.905 128.535C538.68 121.436 509.993 119.084 481.096 119.126C441.236 119.21 401.335 120.596 361.475 120.218C318.507 119.798 279.656 106.862 248.574 76.1165C237.864 65.5321 229.506 52.5956 220.181 40.6251C218.501 38.483 217.367 35.9209 215.435 32.6028H215.477Z" fill="#2DCC70"/>
<path d="M0.680683 155.752C2.57076 155.626 3.95681 155.5 5.34287 155.5C36.8441 155.5 68.3034 155.164 99.8046 155.626C118.327 155.92 133.112 164.53 143.486 179.777C152.013 192.251 150.921 207.792 141.512 220.476C140.294 222.156 138.908 223.752 137.438 225.558C138.11 226.44 138.614 227.365 139.37 227.995C162.807 247.273 159.867 279.825 133.28 298.347C124.04 304.774 113.707 308.008 102.241 307.924C70.0674 307.714 37.8522 307.84 5.67888 307.924C2.19274 307.924 0.218665 307.546 0.260667 303.178C0.386672 255.254 0.34467 207.33 0.34467 159.406C0.34467 158.398 0.512677 157.39 0.680683 155.794V155.752ZM69.0594 246.013C69.0594 246.013 69.0594 246.349 69.0594 246.475C59.819 246.475 50.5367 246.601 41.2963 246.433C37.7682 246.349 36.2141 247.399 36.3401 251.137C36.5501 257.942 36.5921 264.746 36.3401 271.55C36.1721 275.498 37.6842 276.632 41.5063 276.59C58.979 276.422 76.4517 276.758 93.8824 276.38C98.4186 276.296 103.207 274.91 107.407 273.062C112.405 270.92 114.883 266.552 114.631 260.798C114.421 255.254 111.565 251.683 106.819 249.415C105.097 248.575 103.249 247.693 101.401 247.609C90.6483 246.979 79.8538 246.517 69.0594 246.013ZM64.8172 213.294V213.042C73.7216 213.042 82.6679 213.63 91.5303 212.874C98.5446 212.286 105.601 210.06 107.953 202.08C110.473 193.637 103.795 185.993 93.1264 185.699C75.6957 185.153 58.223 185.279 40.7503 184.985C37.6842 184.943 36.2561 185.951 36.3401 189.185C36.4661 195.821 36.4661 202.458 36.3401 209.094C36.2561 212.328 37.6422 213.378 40.7083 213.336C48.7306 213.21 56.7949 213.336 64.8172 213.336V213.294Z" fill="black"/>
<path d="M422.966 307.336C411.667 307.336 401.209 307.42 390.751 307.21C389.743 307.21 388.356 305.278 387.894 303.976C387.39 302.59 387.726 300.868 387.726 299.313C387.726 253.826 387.726 208.338 387.726 162.892C387.726 158.3 390.023 156.004 394.615 156.004C427.166 156.004 459.675 155.878 492.227 156.046C520.494 156.214 543.805 181.415 541.915 209.388C540.193 234.841 516.21 257.186 490.673 257.186C470.05 257.186 449.385 257.312 428.762 257.06C424.1 257.018 422.798 258.446 422.882 263.024C423.176 277.515 422.966 292.005 422.966 307.378V307.336ZM455.559 189.773C446.319 189.773 437.036 189.857 427.796 189.689C424.268 189.647 422.798 190.697 422.924 194.477C423.176 202.668 423.176 210.9 422.924 219.09C422.798 223.122 424.268 224.173 428.048 224.131C445.521 224.005 462.993 224.257 480.424 223.921C484.834 223.836 489.412 222.492 493.487 220.728C500.879 217.452 503.231 212.37 502.349 204.138C501.593 197.375 497.393 192.671 490.084 190.949C487.06 190.235 483.868 189.899 480.76 189.857C472.402 189.731 464.001 189.815 455.601 189.815L455.559 189.773Z" fill="#2DCC70"/>
<path d="M285.494 273.104C288.434 273.104 290.492 273.104 292.508 273.104C315.273 273.104 337.996 273.104 360.761 273.104C365.409 273.104 367.733 275.512 367.733 280.329C367.733 289.233 367.733 298.137 367.733 307.252C360.887 308.092 355.469 308.806 350.345 302.212C340.054 288.981 318.423 287.427 305.319 297.759C303.555 299.145 301.791 300.615 299.775 302.212C292.13 295.197 283.604 290.661 272.894 291.123C263.275 291.543 254.623 294.777 249.037 302.422C243.954 309.478 237.864 307.714 230.976 307.378C230.976 296.205 230.766 285.369 231.186 274.574C231.27 272.6 233.58 270.458 235.302 268.862C261.973 244.123 288.686 219.426 315.441 194.813C316.575 193.763 318.171 193.259 319.515 192.503C319.095 191.831 318.717 191.201 318.297 190.529C316.491 190.445 314.727 190.235 312.921 190.235C288.77 190.235 264.619 190.109 240.468 190.319C236.1 190.319 234.672 189.059 234.84 184.691C235.134 175.283 234.924 165.832 234.924 155.92H367.649C367.649 168.1 367.859 180.113 367.439 192.125C367.397 194.099 365.003 196.199 363.281 197.837C337.87 222.114 312.375 246.307 286.922 270.542C286.586 270.878 286.418 271.424 285.452 273.146L285.494 273.104Z" fill="black"/>
<path d="M519.234 307.336C526.542 289.737 533.346 273.104 540.277 256.514C553.507 224.718 566.822 193.007 579.884 161.17C581.564 157.096 583.622 155.668 587.948 155.836C596.685 156.172 605.421 155.794 614.157 156.088C615.88 156.172 618.484 157.726 619.114 159.28C639.526 207.75 659.729 256.304 679.974 304.858C680.142 305.32 680.142 305.866 680.31 307.042C678.378 307.168 676.572 307.378 674.766 307.378C665.861 307.378 656.915 307.126 648.011 307.504C643.517 307.714 641.375 305.95 639.946 302.044C637.762 295.953 635.158 290.031 632.974 283.941C631.798 280.623 629.908 279.405 626.38 279.405C608.907 279.531 591.393 279.573 573.92 279.405C569.93 279.405 568.04 280.917 566.78 284.697C564.595 291.333 561.907 297.801 559.177 304.228C558.631 305.53 556.909 307.21 555.733 307.21C543.889 307.42 532.002 307.336 519.15 307.336H519.234ZM582.656 245.593H617.518C611.721 231.187 606.303 217.704 600.843 204.18C600.213 204.264 599.625 204.348 598.995 204.474C593.619 217.956 588.242 231.439 582.614 245.593H582.656Z" fill="#2DCC70"/>
<path d="M211.109 232.111C211.109 255.548 211.025 279.027 211.193 302.464C211.193 306.454 210.269 308.092 205.943 307.924C197.039 307.63 188.093 307.714 179.188 307.882C175.828 307.924 174.568 306.874 174.568 303.388C174.652 255.632 174.652 207.834 174.568 160.078C174.568 156.718 175.66 155.416 179.104 155.458C188.009 155.626 196.955 155.71 205.859 155.416C210.017 155.29 211.193 156.592 211.193 160.708C211.025 184.523 211.109 208.296 211.109 232.111Z" fill="black"/>
<path d="M325.69 348.245C312.585 348.371 302.379 338.417 302.127 325.313C301.917 312.628 312.123 301.834 324.472 301.624C338.332 301.414 348.665 311.326 348.749 324.935C348.833 338.081 338.878 348.161 325.648 348.287L325.69 348.245ZM325.648 314.308C319.809 314.182 314.769 318.886 314.601 324.682C314.433 330.311 319.347 335.519 325.018 335.771C330.982 336.023 336.232 331.025 336.232 325.061C336.232 319.18 331.612 314.476 325.648 314.35V314.308Z" fill="#2DCC70"/>
<path d="M250.759 324.556C250.969 311.2 261.259 301.455 274.826 301.707C287.426 301.959 297.548 312.418 297.506 325.102C297.422 338.207 286.754 348.539 273.523 348.287C260.503 348.035 250.549 337.661 250.801 324.556H250.759ZM274.069 314.224C268.231 314.224 263.401 319.012 263.317 324.808C263.275 330.983 268.063 335.771 274.237 335.687C279.992 335.603 284.864 330.647 284.822 324.892C284.822 319.18 279.824 314.266 274.027 314.266L274.069 314.224Z" fill="#2DCC70"/>
</svg>
